<svg width="10" height="7" viewBox="0 0 10 7" fill="none" xmlns="http://www.w3.org/2000/svg">
<path d="M0.227402 0.969836C0.368048 0.829233 0.558779 0.750246 0.757652 0.750246C0.956525 0.750246 1.14726 0.829233 1.2879 0.969836L5.0004 4.68234L8.7129 0.969836C8.85435 0.833218 9.04381 0.757622 9.24045 0.759331C9.4371 0.76104 9.62521 0.839916 9.76427 0.978972C9.90332 1.11803 9.9822 1.30614 9.98391 1.50279C9.98562 1.69943 9.91002 1.88888 9.7734 2.03034L5.53065 6.27309C5.39001 6.41369 5.19928 6.49268 5.0004 6.49268C4.80153 6.49268 4.6108 6.41369 4.47015 6.27309L0.227402 2.03034C0.0867991 1.88969 0.0078125 1.69896 0.0078125 1.50009C0.0078125 1.30121 0.0867991 1.11048 0.227402 0.969836Z" fill="#00DE93"/>
</svg>
