<svg width="115" height="32" viewBox="0 0 115 32" fill="none" xmlns="http://www.w3.org/2000/svg">
<g clip-path="url(#clip0_2014_301)">
<path d="M112.508 20.0237C110.402 18.8683 107.974 18.4402 105.6 18.8058C104.311 18.9869 103.058 19.3598 101.88 19.9124C100.589 20.495 99.3743 21.2362 98.2658 22.119C97.611 22.6232 97.611 22.0012 98.0693 21.0059C99.7653 17.542 101.474 13.9603 103.308 10.4505C102.798 10.1738 102.273 9.92465 101.736 9.70407L100.112 9.00347L98.4426 8.42724C97.886 8.23735 97.336 8.02122 96.7663 7.88371C95.6269 7.58905 94.5072 7.22896 93.3417 7.03907L91.6197 6.68546L89.8712 6.44318C85.2145 5.82116 80.4957 5.82116 75.839 6.44318C71.1865 7.1013 66.6155 8.24242 62.1996 9.8481C57.7934 11.4558 53.4897 13.3321 49.3131 15.4663C44.7295 17.7778 40.2507 20.2987 35.7588 22.7804C33.5128 24.0179 31.2734 25.2555 29.0078 26.4538C26.7421 27.6521 24.47 28.8307 22.1193 29.8063C19.7906 30.8134 17.3372 31.5028 14.8249 31.8559C12.341 32.2346 9.80152 31.9755 7.44528 31.1029C6.28938 30.6429 5.20817 30.014 4.23683 29.2367C3.25896 28.4776 2.40412 27.572 1.70269 26.552C0.327609 24.5418 -0.386058 22.0077 0.294933 19.7094C0.419345 19.1856 1.99741 19.7094 1.93193 20.1154C1.87777 20.3304 1.84044 20.5493 1.8205 20.7702C1.8205 20.9863 1.82063 21.2023 1.78789 21.425C1.75515 21.6476 1.83363 21.8571 1.84672 22.0798C1.8744 22.3009 1.91813 22.5198 1.97765 22.7346C2.21467 23.6402 2.61163 24.4961 3.14976 25.2621C4.37539 26.9541 6.05558 28.2642 7.99537 29.0403C8.46812 29.2317 8.95388 29.3893 9.449 29.5117L10.1823 29.6492C10.4311 29.7016 10.7127 29.7081 10.9811 29.7409C12.0718 29.8281 13.1683 29.8084 14.2551 29.682C16.5588 29.3496 18.809 28.7155 20.9473 27.7962C23.2269 26.8292 25.456 25.7474 27.6262 24.5549C36.6035 19.8207 45.4563 14.4645 55.0557 10.2083C58.8815 8.49012 62.8193 7.03311 66.842 5.84729C67.8504 5.55918 68.8786 5.30381 69.8935 5.0288L73.0233 4.374L76.186 3.8829L79.375 3.58827C83.651 3.29141 87.9473 3.53339 92.163 4.30853C96.4332 5.07855 100.553 6.52416 104.369 8.59094C105.659 6.17747 107.091 3.84229 108.658 1.59766C108.771 1.42867 108.933 1.29844 109.122 1.22446C108.854 0.628592 109.607 -0.334013 110.072 0.189826C110.574 0.756393 111.046 1.34875 111.486 1.96438C111.912 2.61918 112.305 3.27395 112.665 3.97458C113.032 4.65099 113.353 5.35094 113.627 6.0699C113.896 6.80983 114.125 7.55631 114.321 8.29623C114.53 9.0373 114.685 9.79226 114.786 10.5553C114.878 11.328 114.944 12.1006 114.97 12.8602C115.004 13.6156 114.988 14.3724 114.924 15.1258C114.852 15.8919 114.747 16.6449 114.616 17.3717L114.708 17.4962C114.858 17.6926 114.708 17.9741 114.452 18.1902L114.282 18.9433C114.086 19.526 112.999 20.2791 112.508 20.0237ZM109.483 9.1475C109.472 9.23945 109.45 9.32972 109.417 9.41599L109.286 9.70407L109.541 9.33734L109.483 9.1475ZM109.299 8.55162C109.096 7.81824 108.887 7.07832 108.684 6.33839C108.468 6.82294 108.232 7.29443 107.996 7.76589C108.356 7.82482 108.533 8.28318 108.114 8.91179L107.924 9.19986L108.69 8.6433C108.773 8.57198 108.874 8.52548 108.981 8.50925C109.089 8.49302 109.199 8.50773 109.299 8.55162ZM99.9683 19.3361L100.158 19.2118C100.168 19.126 100.19 19.0422 100.224 18.9629C100.302 18.7796 100.387 18.6028 100.473 18.4195L99.9683 19.3361ZM101.337 18.5373L101.52 18.4391C101.486 18.4489 101.45 18.4489 101.415 18.4391L101.337 18.5373ZM101.808 18.295C102.785 17.8206 103.804 17.4413 104.853 17.1622C104.858 17.0911 104.871 17.0207 104.892 16.9527C105.069 16.527 105.252 16.108 105.429 15.6889C105.115 15.6889 104.978 15.3681 105.253 14.7984L105.816 13.6066C104.475 14.8792 103.278 16.2956 102.247 17.8301C102.128 18.0088 101.98 18.166 101.808 18.295ZM105.901 16.9854C106.294 16.9199 106.686 16.8741 107.079 16.8479C107.498 16.0818 107.911 15.3026 108.304 14.5103C108.153 14.7156 107.956 14.8817 107.728 14.9948L105.901 16.9854ZM109.07 16.861C110.09 16.9621 111.094 17.1819 112.062 17.5158C112.083 17.3769 112.083 17.2357 112.062 17.0968C111.729 17.2867 111.408 17.326 111.355 17.0182L111.264 16.5271C110.904 16.5153 110.547 16.5823 110.216 16.7235C109.685 16.8544 109.633 16.4354 109.862 15.9901L109.07 16.861ZM113.038 15.4729C113.086 14.3593 113.062 13.2438 112.966 12.1333C112.833 11.0297 112.627 9.93599 112.351 8.85935C112.079 7.75443 111.72 6.67285 111.277 5.62469C110.848 4.54121 110.35 3.48687 109.784 2.46851C109.784 2.46851 109.784 2.5209 109.744 2.55364L109.09 3.62752C109.178 3.61695 109.267 3.63726 109.343 3.68499C109.418 3.73272 109.474 3.80494 109.502 3.88945C109.987 5.46097 110.425 7.04558 110.851 8.47304C111.067 8.58436 111.172 8.87251 111.061 9.25229L111.211 9.90709C111.46 9.97257 111.598 10.2214 111.408 10.6339C111.611 11.4197 111.82 12.1661 112.03 12.8864C112.03 12.8864 112.076 12.8864 112.095 12.8864C112.69 13.5569 112.998 14.4338 112.953 15.3288L113.038 15.4729ZM105.632 9.33734L105.868 9.4749C106.479 8.41659 107.028 7.32339 107.512 6.20091L105.632 9.33734ZM104.572 11.138L104.493 11.269C104.546 11.2321 104.606 11.2055 104.67 11.1905L104.572 11.138Z" fill="white"/>
</g>
<defs>
<clipPath id="clip0_2014_301">
<rect width="114.937" height="32" fill="white"/>
</clipPath>
</defs>
</svg>
