<svg width="120" height="40" viewBox="0 0 120 40" fill="none" xmlns="http://www.w3.org/2000/svg">
<g clip-path="url(#clip0_2014_304)">
<path d="M118.96 22.593C114.098 25.9673 109.379 31.1657 104.299 38.0015C103.614 38.9167 102.755 38.2692 102.667 36.9182C102.331 32.1991 102.188 27.3307 102.25 22.4746C90.7338 22.5362 79.3869 19.6994 69.2542 14.2256C66.7327 12.8588 64.2848 11.3605 61.9204 9.73693C59.5635 8.10142 57.1079 6.61272 54.5678 5.27932C51.9802 3.90968 49.1383 3.08742 46.2192 2.86375C44.7542 2.81289 43.289 2.95526 41.8612 3.28713C40.4362 3.64758 39.0605 4.18066 37.7647 4.87463C36.3635 5.65411 35.0452 6.57403 33.83 7.62018C32.6353 8.6758 31.518 9.81595 30.4869 11.0318C28.4688 13.4874 26.714 16.1479 25.2511 18.9696C22.269 24.5229 19.8036 30.3813 15.8254 35.2C15.5826 35.505 15.3212 35.8225 15.0597 36.0777C14.7982 36.333 14.5492 36.663 14.269 36.9307C13.7429 37.4897 13.177 38.0099 12.5756 38.4871C11.3865 39.4023 9.96703 40.1431 8.56003 40C7.86696 39.9232 7.2146 39.6339 6.69233 39.1719C6.16418 38.6781 5.74074 38.0832 5.44719 37.4225C4.84829 36.005 4.41181 34.5243 4.14604 33.0085C2.76394 26.8659 1.4088 20.717 0.0806563 14.5618C-0.06876 13.8832 1.94835 13.4163 2.09777 14.0887L4.32661 22.8793L6.61139 32.0435C6.88332 33.3927 7.27287 34.7155 7.77559 35.9968C7.91833 36.3708 8.12945 36.7149 8.39816 37.0116C8.49689 37.1246 8.63056 37.2013 8.77791 37.2295H8.99587C9.13665 37.2111 9.27459 37.1756 9.40671 37.1237C9.85297 36.9547 10.2724 36.722 10.6518 36.4326C11.1464 36.0591 11.6069 35.6424 12.0278 35.1875C12.5258 34.7081 12.9802 34.1727 13.4409 33.6497C15.2825 31.3742 16.8907 28.9194 18.241 26.3221C19.6916 23.6513 21.0488 20.8186 22.599 17.961C22.9787 17.2451 23.3834 16.5292 23.7881 15.8132C24.1928 15.0972 24.6348 14.3626 25.1017 13.6528C26.0162 12.2166 27.0184 10.8381 28.1024 9.5252C30.3225 6.75576 33.0268 4.41221 36.0838 2.60848C37.7154 1.68973 39.4613 0.990572 41.276 0.529119C43.1317 0.0855541 45.0443 -0.0719044 46.9476 0.0621928C48.4238 0.165595 49.8848 0.42648 51.3056 0.840403C52.6585 1.23987 53.9799 1.73931 55.2589 2.33458C57.6454 3.47764 59.9502 4.784 62.1569 6.24433C64.2985 7.60775 66.3219 9.00848 68.3826 10.1602C68.8931 10.4528 69.3974 10.7828 69.9204 11.0505L71.5016 11.8785C72.5476 12.4513 73.6371 12.9307 74.7141 13.4287C83.4401 17.36 92.8527 19.5408 102.418 19.8474C102.518 16.4607 102.711 13.0863 102.991 9.79294C103.001 9.55628 103.063 9.32469 103.172 9.11436C102.786 8.63498 102.96 7.15322 103.414 7.43338C107.418 9.92365 111.906 14.2817 117.236 18.8576H117.404C117.665 18.814 117.877 19.1502 117.989 19.5424L118.705 20.1649C119.184 20.6194 119.558 22.2008 118.96 22.593ZM107.131 17.0334C107.183 17.1321 107.223 17.2366 107.25 17.3447L107.33 17.7244L107.293 17.1766L107.131 17.0334ZM106.627 16.5789C106.048 16.0311 105.494 15.4396 104.952 14.8357C105.033 15.4583 105.095 16.112 105.158 16.7533C105.475 16.5478 105.874 16.8778 105.905 17.8054V18.2288L106.191 17.1143C106.309 16.7719 106.471 16.6225 106.639 16.5789H106.627ZM104.361 34.0108L104.541 33.768C104.478 33.6723 104.43 33.5673 104.398 33.4568C104.348 33.214 104.317 32.9711 104.274 32.7283C104.317 33.1454 104.373 33.5688 104.373 33.9984L104.361 34.0108ZM105.718 32.2926L105.905 32.056C105.849 32.0886 105.788 32.1098 105.724 32.1182L105.718 32.2926ZM106.191 31.67C107.162 30.4249 108.115 29.3167 109.061 28.2708C108.996 28.2048 108.941 28.1292 108.899 28.0466C108.694 27.505 108.501 26.9571 108.314 26.4092C107.984 26.6645 107.523 26.4093 107.343 25.6747L106.982 24.0995C106.561 26.3369 106.352 28.609 106.359 30.8855C106.372 31.1598 106.319 31.4332 106.204 31.6825L106.191 31.67ZM110.057 27.1626C110.425 26.7579 110.786 26.3719 111.153 25.9984C110.792 24.9712 110.45 23.9439 110.113 22.8856V22.9291C110.164 23.2391 110.132 23.557 110.02 23.8505C110.064 24.9836 110.088 26.0793 110.07 27.1751L110.057 27.1626ZM113.002 24.1742C113.923 23.2797 114.891 22.4359 115.903 21.6467C115.77 21.5422 115.624 21.4563 115.467 21.3914C115.467 21.8521 115.274 22.1883 114.913 22.014L114.353 21.74C114.085 22.0922 113.891 22.4944 113.78 22.9229C113.506 23.5454 113.033 23.2965 112.79 22.7424C112.865 23.2155 112.94 23.7136 113.015 24.1867L113.002 24.1742ZM114.484 19.2436L111.626 16.8155L108.93 14.4747C108.065 13.7463 107.212 12.9556 106.384 12.221C105.556 11.4863 104.759 10.7766 103.975 10.0108C103.975 10.0482 103.975 10.0793 103.975 10.1229C103.975 10.6396 103.975 11.1501 103.975 11.6669C103.999 11.6352 104.031 11.6102 104.068 11.5943C104.104 11.5783 104.145 11.5719 104.184 11.5757C104.224 11.5794 104.262 11.5932 104.295 11.6157C104.328 11.6381 104.355 11.6685 104.373 11.7042C105.371 13.0127 106.481 14.2314 107.692 15.3463C107.916 15.3027 108.165 15.5081 108.314 15.9252C108.488 16.0746 108.657 16.2365 108.837 16.3797C109.049 16.224 109.31 16.3237 109.46 16.8528C110.141 17.3677 110.85 17.8457 111.583 18.2848C111.583 18.2848 111.62 18.2474 111.645 18.2474C112.129 18.2269 112.612 18.304 113.065 18.4741C113.519 18.6441 113.933 18.9037 114.285 19.2373L114.484 19.2436ZM103.956 19.8661H104.255C104.209 18.3595 104.11 16.8591 103.956 15.3649V19.8661ZM103.956 22.4373V22.6241C103.994 22.553 104.042 22.488 104.099 22.4311L103.956 22.4373Z" fill="white"/>
</g>
<defs>
<clipPath id="clip0_2014_304">
<rect width="119.265" height="40" fill="white"/>
</clipPath>
</defs>
</svg>
