<svg width="115" height="40" viewBox="0 0 115 40" fill="none" xmlns="http://www.w3.org/2000/svg">
<path d="M114.197 25.1118C109.383 27.0508 105.295 31.6067 102.963 38.0745C102.644 38.9491 102.054 38.4542 101.797 37.2677C100.929 33.1186 100.075 28.8406 99.3832 24.5355C96.8408 25.0033 94.312 25.5525 91.8171 26.2236C89.3222 26.8948 86.8544 27.6406 84.4205 28.5084C81.9866 29.3762 79.6002 30.3389 77.2476 31.3897C74.8951 32.4406 72.6036 33.6541 70.3256 34.8406C68.0617 36.0581 65.7353 37.1556 63.3561 38.1287C61.0064 39.1249 58.5152 39.7472 55.973 39.9728C53.4474 40.1868 50.9161 39.6314 48.712 38.3796C46.5396 37.0767 44.7685 35.2 43.5934 32.9559C42.2993 30.478 41.3221 27.8472 40.6849 25.1253C40.0069 22.4135 39.512 19.627 38.7459 16.8745C38.3691 15.4946 37.9164 14.1366 37.3899 12.8067C36.8442 11.4847 36.1983 10.2064 35.4578 8.98294C34.6926 7.74864 33.7821 6.61057 32.7459 5.59311C31.6863 4.58971 30.4495 3.792 29.0984 3.24058C27.7419 2.68639 26.2855 2.41861 24.8205 2.45412C23.3622 2.51277 21.9246 2.82007 20.5697 3.36265C17.9162 4.48808 15.4954 6.09739 13.4307 8.10842C11.3425 10.0677 9.51204 12.2237 7.53238 14.2101C5.65058 16.2301 3.43518 17.9111 0.983201 19.1796C0.434049 19.444 -0.298141 17.7627 0.149316 17.5186C2.26166 16.3154 4.16063 14.7714 5.7696 12.9491C7.62723 10.9966 9.38995 8.82027 11.5391 6.65756C13.7626 4.38675 16.3877 2.54777 19.2815 1.23383C20.8756 0.536117 22.5767 0.11432 24.312 -0.0136026C25.2168 -0.0775294 26.1258 -0.0457873 27.0239 0.0812398C27.4806 0.146482 27.9332 0.237034 28.3798 0.352443C28.6036 0.3999 28.8205 0.447345 29.0578 0.508362L29.7358 0.73893C30.5837 1.04559 31.4009 1.43144 32.1764 1.89144L33.2747 2.64397C33.6408 2.89482 33.9527 3.1931 34.2849 3.47107C35.5286 4.59382 36.6142 5.88014 37.512 7.29481C39.1566 9.93573 40.4081 12.802 41.2273 15.8033C41.4442 16.5287 41.6205 17.2609 41.8035 17.9863L42.0476 19.0779L42.2714 20.1152C42.5697 21.4711 42.8544 22.827 43.1866 24.183C43.7499 26.7075 44.622 29.153 45.7832 31.4643C46.3187 32.4995 46.989 33.4592 47.7764 34.3185C48.523 35.1146 49.3929 35.7854 50.3527 36.305C51.9101 37.1076 53.6544 37.4775 55.4036 37.3762C57.342 37.2571 59.2509 36.8434 61.0646 36.1491C63.0468 35.4156 64.9806 34.5573 66.8544 33.5796C68.8002 32.5965 70.7188 31.5457 72.7934 30.4745C76.9178 28.3729 81.2107 26.6199 85.6273 25.2338C90.0339 23.8343 94.552 22.8137 99.1324 22.183C98.7053 19.1728 98.3798 16.1627 98.2374 13.1999C98.2195 12.9804 98.2617 12.76 98.3595 12.5626C97.8103 12.2101 97.8036 10.8745 98.4408 11.0304C104.075 12.427 109.383 16.4541 113.424 21.4643H113.593C113.844 21.4643 113.973 21.8101 113.993 22.1423L114.515 22.8202C114.834 23.4169 114.78 24.8745 114.197 25.1118ZM103.566 19.166C103.621 19.2527 103.664 19.3461 103.695 19.444L103.79 19.7762L103.736 19.2881L103.566 19.166ZM103.024 18.7932C102.393 18.3525 101.763 17.8575 101.119 17.3694C101.261 17.9321 101.383 18.5016 101.505 19.0643C101.817 18.8541 102.258 19.1186 102.353 19.9457L102.393 20.3254L102.617 19.3084C102.629 19.1919 102.675 19.0813 102.748 18.99C102.821 18.8986 102.92 18.8303 103.031 18.7932H103.024ZM102.549 34.5084L102.651 34.2711C102.592 34.1905 102.547 34.1013 102.515 34.0067C102.461 33.7897 102.407 33.5864 102.346 33.3762L102.549 34.5084ZM103.329 32.8745L103.444 32.6575C103.406 32.686 103.362 32.7067 103.315 32.7185L103.329 32.8745ZM103.614 32.3253C104.193 31.2289 104.857 30.1794 105.6 29.1864C105.546 29.126 105.503 29.0573 105.471 28.9829C105.295 28.5016 105.126 28.0202 104.956 27.5389C104.692 27.7762 104.278 27.5796 104.122 26.9084L103.729 25.5185C103.5 27.5451 103.481 29.5899 103.675 31.6202C103.702 31.8566 103.684 32.096 103.621 32.3253H103.614ZM106.38 28.2101C106.671 27.8508 106.976 27.5321 107.282 27.1999L106.461 24.3999V24.4474C106.497 24.7245 106.465 25.0062 106.366 25.2677C106.393 26.244 106.4 27.2271 106.387 28.2101H106.38ZM108.922 25.6678C109.793 24.9379 110.731 24.2909 111.722 23.7355C111.621 23.6248 111.504 23.529 111.376 23.4508C111.295 23.8576 111.098 24.1288 110.8 23.9593L110.332 23.6541C110.052 23.9341 109.837 24.272 109.702 24.644C109.404 25.1593 109.024 24.8949 108.841 24.3864C108.875 24.7864 108.902 25.2339 108.929 25.6678H108.922ZM110.76 21.4305C107.514 18.0704 103.714 15.2951 99.5256 13.227C99.5287 13.2586 99.5287 13.2904 99.5256 13.3219L99.6883 14.6779C99.7192 14.6463 99.7561 14.6213 99.7969 14.6041C99.8376 14.587 99.8813 14.5781 99.9255 14.5781C99.9697 14.5781 100.013 14.587 100.054 14.6041C100.095 14.6213 100.132 14.6463 100.163 14.6779C101.519 15.7626 102.814 16.7118 104.102 17.6474C104.346 17.5931 104.61 17.7558 104.78 18.1355L105.329 18.5423C105.56 18.4 105.831 18.4949 106.007 18.9627C106.685 19.4305 107.363 19.8915 108.081 20.3186C108.081 20.3186 108.122 20.3186 108.142 20.3186C108.609 20.3255 109.069 20.4298 109.493 20.6247C109.916 20.8197 110.295 21.101 110.604 21.4507L110.76 21.4305ZM100.59 21.9931L100.875 21.9524C100.671 20.5965 100.414 19.2948 100.082 17.9931L100.59 21.9931ZM100.888 24.2711V24.4406C100.91 24.3714 100.944 24.307 100.99 24.2507L100.888 24.2711Z" fill="white"/>
</svg>
