<svg width="48" height="48" viewBox="0 0 48 48" fill="none" xmlns="http://www.w3.org/2000/svg">
<g clip-path="url(#clip0_2014_274)">
<path d="M48 7.5C48 9.1875 46.6594 10.7437 44.4 12C41.6719 13.5094 37.6031 14.5781 32.9344 14.8969C32.5875 14.7281 32.2406 14.5687 31.875 14.4281C28.1812 12.8812 23.2687 12 18 12C17.2219 12 16.4625 12.0188 15.7031 12.0563L15.6 12C13.3406 10.7437 12 9.1875 12 7.5C12 3.35625 20.0625 0 30 0C39.9375 0 48 3.35625 48 7.5ZM15.0656 15.1031C16.0219 15.0375 17.0063 15 18 15C23.8312 15 29.0063 16.1531 32.2969 17.9437C34.6219 19.2094 36 20.7844 36 22.5C36 22.875 35.9344 23.2406 35.8031 23.5969C35.3719 24.8344 34.2094 25.9688 32.5219 26.925C32.5125 26.9344 32.4938 26.9344 32.4844 26.9437C32.4562 26.9625 32.4281 26.9719 32.4 26.9906C29.1188 28.8094 23.8875 29.9906 18 29.9906C12.4125 29.9906 7.41562 28.9312 4.10625 27.2625C3.92812 27.1781 3.75937 27.0844 3.59062 26.9906C1.34062 25.7437 0 24.1875 0 22.5C0 19.2375 5.00625 16.4531 12 15.4313C12.9844 15.2906 14.0062 15.1781 15.0656 15.1031ZM39 22.5C39 20.4469 38.0062 18.7594 36.7406 17.4938C39.3937 17.0813 41.8219 16.425 43.8844 15.5719C45.4125 14.9344 46.8375 14.1469 48 13.1813V16.5C48 18.3094 46.4531 19.9781 43.8938 21.2719C42.525 21.9656 40.8562 22.5562 38.9812 23.0062C38.9906 22.8375 39 22.6781 39 22.5094V22.5ZM36 31.5C36 33.1875 34.6594 34.7438 32.4 36C32.2313 36.0938 32.0625 36.1781 31.8844 36.2719C28.5844 37.9406 23.5875 39 18 39C12.1125 39 6.88125 37.8187 3.6 36C1.34063 34.7438 0 33.1875 0 31.5V28.1813C1.17188 29.1469 2.5875 29.9344 4.11563 30.5719C7.81875 32.1188 12.7312 33 18 33C23.2687 33 28.1813 32.1188 31.8844 30.5719C32.6156 30.2719 33.3187 29.925 33.9844 29.55C34.5563 29.2313 35.0906 28.875 35.5969 28.5C35.7375 28.3969 35.8688 28.2844 36 28.1813V31.5ZM39 31.5V26.0719C40.7812 25.6781 42.4219 25.1813 43.8844 24.5719C45.4125 23.9344 46.8375 23.1469 48 22.1813V25.5C48 26.4844 47.5312 27.4688 46.6031 28.3969C45.075 29.925 42.3844 31.1812 38.9812 31.9969C38.9906 31.8375 39 31.6688 39 31.5ZM18 42C23.2687 42 28.1813 41.1188 31.8844 39.5719C33.4125 38.9344 34.8375 38.1469 36 37.1813V40.5C36 44.6437 27.9375 48 18 48C8.0625 48 0 44.6437 0 40.5V37.1813C1.17188 38.1469 2.5875 38.9344 4.11563 39.5719C7.81875 41.1188 12.7312 42 18 42Z" fill="white"/>
</g>
<defs>
<clipPath id="clip0_2014_274">
<rect width="48" height="48" fill="white"/>
</clipPath>
</defs>
</svg>
