<svg width="48" height="48" viewBox="0 0 48 48" fill="none" xmlns="http://www.w3.org/2000/svg">
<path fill-rule="evenodd" clip-rule="evenodd" d="M24.104 2.5H23.896C22.098 2.5 20.6 2.5 19.412 2.66C18.156 2.828 17.022 3.2 16.112 4.11C15.2 5.022 14.828 6.156 14.66 7.41C14.546 8.264 14.512 10.302 14.504 12.05C10.46 12.184 8.03 12.656 6.344 14.344C4 16.686 4 20.458 4 28C4 35.542 4 39.314 6.344 41.656C8.688 43.998 12.458 44 20 44H28C35.542 44 39.314 44 41.656 41.656C43.998 39.312 44 35.542 44 28C44 20.458 44 16.686 41.656 14.344C39.97 12.656 37.54 12.184 33.496 12.052C33.488 10.302 33.456 8.264 33.34 7.412C33.172 6.156 32.8 5.022 31.888 4.112C30.978 3.2 29.844 2.828 28.588 2.66C27.4 2.5 25.9 2.5 24.104 2.5ZM30.496 12.004C30.486 10.31 30.458 8.488 30.368 7.81C30.242 6.888 30.028 6.492 29.768 6.232C29.508 5.972 29.112 5.758 28.188 5.632C27.224 5.504 25.928 5.5 24 5.5C22.072 5.5 20.776 5.504 19.81 5.634C18.888 5.758 18.492 5.972 18.232 6.234C17.972 6.496 17.758 6.888 17.632 7.81C17.542 8.49 17.512 10.31 17.504 12.004C18.288 12 19.12 11.9987 20 12H28C28.8827 12 29.7147 12.0013 30.496 12.004ZM24 18.5C24.3978 18.5 24.7794 18.658 25.0607 18.9393C25.342 19.2206 25.5 19.6022 25.5 20V20.02C27.678 20.568 29.5 22.286 29.5 24.666C29.5 25.0638 29.342 25.4454 29.0607 25.7267C28.7794 26.008 28.3978 26.166 28 26.166C27.6022 26.166 27.2206 26.008 26.9393 25.7267C26.658 25.4454 26.5 25.0638 26.5 24.666C26.5 23.898 25.648 22.834 24 22.834C22.352 22.834 21.5 23.898 21.5 24.666C21.5 25.434 22.352 26.5 24 26.5C26.77 26.5 29.5 28.42 29.5 31.334C29.5 33.714 27.678 35.43 25.5 35.98V36C25.5 36.3978 25.342 36.7794 25.0607 37.0607C24.7794 37.342 24.3978 37.5 24 37.5C23.6022 37.5 23.2206 37.342 22.9393 37.0607C22.658 36.7794 22.5 36.3978 22.5 36V35.98C20.322 35.432 18.5 33.714 18.5 31.334C18.5 30.9362 18.658 30.5546 18.9393 30.2733C19.2206 29.992 19.6022 29.834 20 29.834C20.3978 29.834 20.7794 29.992 21.0607 30.2733C21.342 30.5546 21.5 30.9362 21.5 31.334C21.5 32.102 22.352 33.166 24 33.166C25.648 33.166 26.5 32.102 26.5 31.334C26.5 30.566 25.648 29.5 24 29.5C21.23 29.5 18.5 27.58 18.5 24.666C18.5 22.286 20.322 20.568 22.5 20.02V20C22.5 19.6022 22.658 19.2206 22.9393 18.9393C23.2206 18.658 23.6022 18.5 24 18.5Z" fill="white"/>
</svg>
