<svg width="48" height="48" viewBox="0 0 48 48" fill="none" xmlns="http://www.w3.org/2000/svg">
<path fill-rule="evenodd" clip-rule="evenodd" d="M6.5 31.4925C6.99728 31.4925 7.47419 31.69 7.82583 32.0417C8.17746 32.3933 8.375 32.8702 8.375 33.3675V39C8.375 39.345 8.655 39.625 9 39.625H39C39.1658 39.625 39.3247 39.5592 39.4419 39.4419C39.5592 39.3247 39.625 39.1658 39.625 39V33.3675C39.625 32.8702 39.8225 32.3933 40.1742 32.0417C40.5258 31.69 41.0027 31.4925 41.5 31.4925C41.9973 31.4925 42.4742 31.69 42.8258 32.0417C43.1775 32.3933 43.375 32.8702 43.375 33.3675V39C43.375 40.1603 42.9141 41.2731 42.0936 42.0936C41.2731 42.9141 40.1603 43.375 39 43.375H9C7.83968 43.375 6.72688 42.9141 5.90641 42.0936C5.08594 41.2731 4.625 40.1603 4.625 39V33.3675C4.625 32.8702 4.82254 32.3933 5.17417 32.0417C5.52581 31.69 6.00272 31.4925 6.5 31.4925ZM24.505 4.625C25.0023 4.625 25.4792 4.82254 25.8308 5.17417C26.1825 5.52581 26.38 6.00272 26.38 6.5V26.715C26.38 27.2123 26.1825 27.6892 25.8308 28.0408C25.4792 28.3925 25.0023 28.59 24.505 28.59C24.0077 28.59 23.5308 28.3925 23.1792 28.0408C22.8275 27.6892 22.63 27.2123 22.63 26.715V6.5C22.63 6.00272 22.8275 5.52581 23.1792 5.17417C23.5308 4.82254 24.0077 4.625 24.505 4.625Z" fill="white"/>
<path fill-rule="evenodd" clip-rule="evenodd" d="M14.805 20.5649C15.1522 20.2094 15.6264 20.0064 16.1233 20.0003C16.6202 19.9942 17.0992 20.1856 17.455 20.5324L24.505 27.4199L31.555 20.5324C31.7304 20.3567 31.9389 20.2176 32.1684 20.1231C32.398 20.0286 32.644 19.9806 32.8923 19.982C33.1405 19.9833 33.386 20.0339 33.6145 20.1309C33.8431 20.2279 34.05 20.3692 34.2235 20.5468C34.3969 20.7244 34.5334 20.9347 34.625 21.1654C34.7165 21.3962 34.7613 21.6428 34.7568 21.891C34.7523 22.1392 34.6986 22.384 34.5987 22.6113C34.4988 22.8386 34.3548 23.0437 34.175 23.2149L25.815 31.3824C25.4647 31.7245 24.9946 31.916 24.505 31.916C24.0154 31.916 23.5453 31.7245 23.195 31.3824L14.835 23.2149C14.4799 22.8673 14.2772 22.393 14.2716 21.8961C14.266 21.3992 14.4578 20.9204 14.805 20.5649Z" fill="white"/>
</svg>
