<svg width="48" height="48" viewBox="0 0 48 48" fill="none" xmlns="http://www.w3.org/2000/svg">
<path d="M8.95312 9.74999H38.9531C39.3036 9.7499 39.6536 9.77213 40.0013 9.81655C39.8834 8.98947 39.5993 8.1948 39.1661 7.48048C38.7328 6.76616 38.1594 6.14697 37.4804 5.66025C36.8014 5.17352 36.0309 4.82935 35.2152 4.64847C34.3996 4.46759 33.5558 4.45376 32.7347 4.6078L8.0625 8.81999H8.03437C6.48569 9.11615 5.1085 9.99236 4.18406 11.2697C5.57681 10.279 7.24401 9.74778 8.95312 9.74999ZM38.9531 12H8.95312C7.36236 12.0017 5.83724 12.6344 4.7124 13.7593C3.58756 14.8841 2.95486 16.4092 2.95312 18V36C2.95486 37.5908 3.58756 39.1159 4.7124 40.2407C5.83724 41.3656 7.36236 41.9983 8.95312 42H38.9531C40.5439 41.9983 42.069 41.3656 43.1938 40.2407C44.3187 39.1159 44.9514 37.5908 44.9531 36V18C44.9514 16.4092 44.3187 14.8841 43.1938 13.7593C42.069 12.6344 40.5439 12.0017 38.9531 12ZM34.5 30C33.9067 30 33.3266 29.824 32.8333 29.4944C32.3399 29.1648 31.9554 28.6962 31.7284 28.148C31.5013 27.5999 31.4419 26.9967 31.5576 26.4147C31.6734 25.8328 31.9591 25.2982 32.3787 24.8787C32.7982 24.4591 33.3328 24.1734 33.9147 24.0576C34.4967 23.9419 35.0999 24.0013 35.6481 24.2284C36.1962 24.4554 36.6648 24.8399 36.9944 25.3333C37.3241 25.8266 37.5 26.4066 37.5 27C37.5 27.7956 37.1839 28.5587 36.6213 29.1213C36.0587 29.6839 35.2957 30 34.5 30Z" fill="white"/>
<path d="M3 24.3281V15C3 12.9684 4.125 9.5625 8.02969 8.82469C11.3438 8.20312 14.625 8.20312 14.625 8.20312C14.625 8.20312 16.7812 9.70312 15 9.70312C13.2188 9.70312 13.2656 12 15 12C16.7344 12 15 14.2031 15 14.2031L8.01562 22.125L3 24.3281Z" fill="white"/>
</svg>
