<?xml version="1.0" encoding="utf-8"?><svg viewBox="0 0 120 48" xmlns="http://www.w3.org/2000/svg" xmlns:xlink="http://www.w3.org/1999/xlink"><style>:root>svg{display:none}:root>svg:target{display:block}</style><svg viewBox="0 0 115 40" id="arrow" xmlns="http://www.w3.org/2000/svg"><path d="M114.197 25.112c-4.814 1.939-8.902 6.495-11.234 12.963-.319.874-.909.38-1.166-.807-.868-4.15-1.722-8.427-2.414-12.733a95.993 95.993 0 00-7.566 1.689 97.085 97.085 0 00-7.396 2.284 99.567 99.567 0 00-7.173 2.882c-2.353 1.05-4.644 2.264-6.922 3.45a73.303 73.303 0 01-6.97 3.289 24.452 24.452 0 01-7.383 1.844 12.556 12.556 0 01-7.261-1.593 13.776 13.776 0 01-5.119-5.424 33.323 33.323 0 01-2.908-7.83c-.678-2.713-1.173-5.499-1.94-8.252a38.86 38.86 0 00-1.355-4.067 28.066 28.066 0 00-1.932-3.824 18.164 18.164 0 00-2.712-3.39 11.777 11.777 0 00-3.648-2.352 10.63 10.63 0 00-4.277-.787 12.82 12.82 0 00-4.251.909 23.233 23.233 0 00-7.14 4.745c-2.088 1.96-3.918 4.116-5.898 6.102a24.06 24.06 0 01-6.549 4.97c-.549.264-1.281-1.417-.834-1.661a22.068 22.068 0 005.62-4.57c1.858-1.952 3.621-4.129 5.77-6.291a25.715 25.715 0 017.743-5.424 15.363 15.363 0 015.03-1.248 12.882 12.882 0 012.712.095c.457.065.91.156 1.356.271.224.048.44.095.678.156l.678.23a14.43 14.43 0 012.44 1.153l1.099.753c.366.25.678.55 1.01.827a18.522 18.522 0 013.227 3.824 32.071 32.071 0 013.715 8.508c.217.726.394 1.458.577 2.183l.244 1.092.223 1.037c.299 1.356.583 2.712.916 4.068a31.5 31.5 0 002.596 7.281 13.206 13.206 0 001.993 2.855 10.17 10.17 0 002.577 1.986 9.79 9.79 0 005.05 1.071 19.113 19.113 0 005.662-1.227 50.11 50.11 0 005.79-2.57c1.945-.983 3.864-2.033 5.938-3.105a83.029 83.029 0 0112.834-5.24 81.216 81.216 0 0113.505-3.051c-.427-3.01-.752-6.02-.895-8.983-.017-.22.025-.44.123-.637-.55-.353-.556-1.689.08-1.533 5.635 1.397 10.943 5.424 14.984 10.434h.169c.251 0 .38.346.4.678l.522.678c.319.597.265 2.055-.318 2.292zm-10.631-5.946c.055.087.098.18.129.278l.095.332-.054-.488-.17-.122zm-.542-.373c-.631-.44-1.261-.935-1.905-1.424.142.563.264 1.133.386 1.695.312-.21.753.055.848.882l.04.38.224-1.018a.611.611 0 01.414-.515h-.007zm-.475 15.715l.102-.237a.975.975 0 01-.136-.264 16.54 16.54 0 00-.169-.63l.203 1.131zm.78-1.634l.115-.217a.362.362 0 01-.129.062l.014.155zm.285-.549a23.758 23.758 0 011.986-3.139.747.747 0 01-.129-.203c-.176-.481-.345-.963-.515-1.444-.264.237-.678.04-.834-.63l-.393-1.39a29.42 29.42 0 00-.054 6.101c.027.237.009.476-.054.705h-.007zm2.766-4.115c.291-.36.596-.678.902-1.01l-.821-2.8v.047c.036.277.004.56-.095.82.027.977.034 1.96.021 2.943h-.007zm2.542-2.542a18.257 18.257 0 012.8-1.933 1.592 1.592 0 00-.346-.284c-.081.407-.278.678-.576.508l-.468-.305c-.28.28-.495.618-.63.99-.298.515-.678.25-.861-.258.034.4.061.848.088 1.282h-.007zm1.838-4.238a40.635 40.635 0 00-11.234-8.203.485.485 0 010 .095l.162 1.356a.332.332 0 01.475 0c1.356 1.085 2.651 2.034 3.939 2.97.244-.055.508.108.678.488l.549.406c.231-.142.502-.047.678.42.678.468 1.356.93 2.074 1.357h.061a3.353 3.353 0 012.462 1.132l.156-.02zm-10.17.563l.285-.04a39.943 39.943 0 00-.793-3.96l.508 4zm.298 2.278v.17a.574.574 0 01.102-.19l-.102.02z"/></svg><svg viewBox="0 0 10 7" id="arrow-select" xmlns="http://www.w3.org/2000/svg"><path d="M.227.97a.75.75 0 011.06 0L5 4.682 8.713.97a.75.75 0 011.06 1.06L5.531 6.273a.75.75 0 01-1.06 0L.226 2.03a.75.75 0 010-1.06z"/></svg><svg viewBox="0 0 115 32" id="arrow2" xmlns="http://www.w3.org/2000/svg"><g clip-path="url(#ca)"><path d="M112.508 20.024a10.91 10.91 0 00-6.908-1.218 13.022 13.022 0 00-3.72 1.106 17.08 17.08 0 00-3.614 2.207c-.655.504-.655-.118-.197-1.113 1.696-3.464 3.405-7.046 5.239-10.556a16.22 16.22 0 00-1.572-.746l-1.624-.7-1.67-.577c-.556-.19-1.106-.406-1.676-.543-1.14-.295-2.259-.655-3.424-.845l-1.722-.354-1.749-.242a52.992 52.992 0 00-14.032 0 67.634 67.634 0 00-13.64 3.405 114.796 114.796 0 00-12.886 5.618C44.73 17.778 40.251 20.3 35.76 22.78c-2.246 1.238-4.486 2.476-6.751 3.674-2.266 1.198-4.538 2.377-6.889 3.352a28.299 28.299 0 01-7.294 2.05c-2.484.379-5.023.12-7.38-.753a12.58 12.58 0 01-3.208-1.866 12.023 12.023 0 01-2.534-2.685c-1.375-2.01-2.09-4.544-1.408-6.843.124-.523 1.702 0 1.637.406a4.242 4.242 0 00-.111.655c0 .216 0 .432-.033.655-.033.223.046.432.059.655.027.22.071.44.13.655a7.858 7.858 0 001.173 2.527 11.054 11.054 0 004.845 3.778c.473.192.959.35 1.454.472l.733.137c.25.053.53.06.8.092a16.77 16.77 0 003.273-.059 26.54 26.54 0 006.692-1.886 73.345 73.345 0 006.68-3.241c8.976-4.734 17.83-10.09 27.429-14.347a92.856 92.856 0 0111.786-4.36c1.008-.289 2.037-.544 3.052-.82l3.13-.654 3.162-.491 3.189-.295a51.132 51.132 0 0112.788.72 40.85 40.85 0 0112.206 4.283 69.216 69.216 0 014.289-6.993.994.994 0 01.464-.374c-.268-.595.485-1.558.95-1.034a21.72 21.72 0 011.414 1.774c.426.655.819 1.31 1.179 2.01.367.677.688 1.377.962 2.096.269.74.498 1.486.694 2.226.209.741.364 1.496.465 2.26.092.772.158 1.545.184 2.304a17.48 17.48 0 01-.046 2.266 26.881 26.881 0 01-.308 2.246l.092.124c.15.197 0 .478-.256.694l-.17.753c-.196.583-1.283 1.336-1.774 1.08zm-3.025-10.877a1.126 1.126 0 01-.066.269l-.131.288.255-.367-.058-.19zm-.184-.595c-.203-.734-.412-1.474-.615-2.214-.216.485-.452.956-.688 1.428.36.059.537.517.118 1.146l-.19.288.766-.557a.58.58 0 01.609-.091zm-9.33 10.784l.189-.124a.894.894 0 01.066-.25c.078-.182.163-.36.249-.543l-.505.917zm1.368-.799l.183-.098a.191.191 0 01-.105 0l-.078.098zm.471-.242a16.942 16.942 0 013.045-1.133.932.932 0 01.039-.21c.177-.425.36-.844.537-1.263-.314 0-.451-.32-.176-.89l.563-1.192a25.19 25.19 0 00-3.569 4.223 1.89 1.89 0 01-.439.465zm4.093-1.31c.393-.065.785-.11 1.178-.137a65.98 65.98 0 001.225-2.338 1.595 1.595 0 01-.576.485l-1.827 1.99zm3.169-.124c1.02.101 2.024.32 2.992.655.021-.14.021-.28 0-.42-.333.19-.654.23-.707-.078l-.091-.49a2.463 2.463 0 00-1.048.196c-.531.13-.583-.289-.354-.734l-.792.871zm3.968-1.388a25.85 25.85 0 00-.072-3.34 25.447 25.447 0 00-.615-3.274 21.525 21.525 0 00-1.074-3.234 26.817 26.817 0 00-1.493-3.156s0 .052-.04.085l-.654 1.074a.388.388 0 01.412.261c.485 1.572.923 3.157 1.349 4.584.216.111.321.4.21.78l.15.654c.249.066.387.314.197.727.203.786.412 1.532.622 2.252h.065a3.42 3.42 0 01.858 2.443l.085.144zm-7.406-6.136l.236.138a31.469 31.469 0 001.644-3.274l-1.88 3.136zm-1.06 1.801l-.079.131a.515.515 0 01.177-.079l-.098-.052z"/></g><defs><clipPath id="ca"><path d="M0 0h114.937v32H0z"/></clipPath></defs></svg><svg viewBox="0 0 120 40" id="arrow3" xmlns="http://www.w3.org/2000/svg"><g clip-path="url(#da)"><path d="M118.96 22.593c-4.862 3.374-9.581 8.573-14.661 15.409-.685.915-1.544.267-1.632-1.084a173.272 173.272 0 01-.417-14.443 68.65 68.65 0 01-32.996-8.25 81.926 81.926 0 01-7.334-4.488 69.816 69.816 0 00-7.352-4.458 21.33 21.33 0 00-8.349-2.415 16.69 16.69 0 00-4.358.423c-1.425.36-2.8.894-4.096 1.588A23.7 23.7 0 0033.83 7.62a33.254 33.254 0 00-3.343 3.412 45.447 45.447 0 00-5.236 7.938c-2.982 5.553-5.447 11.411-9.426 16.23a9.663 9.663 0 01-.765.878c-.262.255-.51.585-.791.853a15.88 15.88 0 01-1.693 1.556c-1.19.915-2.609 1.656-4.016 1.513a3.381 3.381 0 01-1.868-.828 5.392 5.392 0 01-1.245-1.75 20.388 20.388 0 01-1.301-4.413A2146.73 2146.73 0 01.081 14.561c-.15-.679 1.867-1.146 2.017-.473l2.229 8.79 2.284 9.165a23.555 23.555 0 001.165 3.953c.142.374.353.718.622 1.015.099.113.233.19.38.218h.218a1.74 1.74 0 00.41-.106 4.934 4.934 0 001.246-.691c.494-.374.955-.79 1.376-1.245.498-.48.952-1.015 1.413-1.538a43.662 43.662 0 004.8-7.328c1.45-2.67 2.808-5.503 4.358-8.361.38-.716.784-1.432 1.19-2.148.404-.716.846-1.45 1.313-2.16a41.453 41.453 0 013-4.128 29.335 29.335 0 017.982-6.917A21.261 21.261 0 0141.276.53a18.733 18.733 0 015.672-.467 20.77 20.77 0 014.358.778c1.352.4 2.674.9 3.953 1.495a57.534 57.534 0 016.898 3.91c2.142 1.363 4.165 2.763 6.226 3.915.51.293 1.014.623 1.537.89l1.582.829c1.046.572 2.135 1.052 3.212 1.55a73.15 73.15 0 0027.704 6.418c.1-3.386.293-6.76.573-10.054.01-.237.072-.468.181-.679-.386-.479-.212-1.96.242-1.68 4.004 2.49 8.492 6.848 13.822 11.424h.168c.261-.044.473.292.585.684l.716.623c.479.454.853 2.036.255 2.428zm-11.829-5.56c.052.1.092.204.119.312l.08.38-.037-.548-.162-.144zm-.504-.454a29.732 29.732 0 01-1.675-1.743c.081.622.143 1.276.206 1.917.317-.205.716.125.747 1.052v.424l.286-1.115c.118-.342.28-.492.448-.535h-.012zm-2.266 17.432l.18-.243a1.145 1.145 0 01-.143-.311c-.05-.243-.081-.486-.124-.729.043.417.099.84.099 1.27l-.012.013zm1.357-1.718l.187-.237a.484.484 0 01-.181.062l-.006.175zm.473-.623a60.271 60.271 0 012.87-3.4.904.904 0 01-.162-.223 52.849 52.849 0 01-.585-1.638c-.33.256-.791 0-.971-.734l-.361-1.576a36.097 36.097 0 00-.623 6.787 1.71 1.71 0 01-.155.797l-.013-.013zm3.866-4.507c.368-.405.729-.791 1.096-1.165a110.076 110.076 0 01-1.04-3.112v.043c.051.31.019.628-.093.922.044 1.133.068 2.228.05 3.324l-.013-.012zm2.945-2.989a35.484 35.484 0 012.901-2.527 1.847 1.847 0 00-.436-.256c0 .461-.193.797-.554.623l-.56-.274a3.332 3.332 0 00-.573 1.183c-.274.622-.747.374-.99-.18.075.473.15.97.225 1.444l-.013-.013zm1.482-4.93l-2.858-2.428-2.696-2.341c-.865-.729-1.718-1.52-2.546-2.254a67.662 67.662 0 01-2.409-2.21v1.656a.233.233 0 01.32-.051c.033.022.06.053.078.088a28.173 28.173 0 003.319 3.642c.224-.043.473.162.622.58.174.149.343.31.523.454.212-.156.473-.056.623.473.681.515 1.39.993 2.123 1.432 0 0 .037-.038.062-.038a3.606 3.606 0 012.64.99l.199.007zm-10.528.622h.299a62.492 62.492 0 00-.299-4.501v4.501zm0 2.571v.187a.815.815 0 01.143-.193l-.143.006z"/></g><defs><clipPath id="da"><path d="M0 0h119.265v40H0z"/></clipPath></defs></svg><svg viewBox="0 0 48 48" id="circle-filled" xmlns="http://www.w3.org/2000/svg"><mask id="ea" maskUnits="userSpaceOnUse" x="4" y="4" width="40" height="40"><path d="M6 24c0-9.94 8.06-18 18-18s18 8.06 18 18-8.06 18-18 18S6 33.94 6 24z" stroke-width="4" stroke-linecap="round" stroke-linejoin="round"/><path d="M16 24l6 6 10-10" stroke-width="4" stroke-linecap="round" stroke-linejoin="round"/></mask><g mask="url(#ea)"><path d="M48 0H0v48h48V0z"/></g></svg><svg viewBox="0 0 48 48" id="coins" xmlns="http://www.w3.org/2000/svg"><g clip-path="url(#fa)"><path d="M48 7.5c0 1.688-1.34 3.244-3.6 4.5-2.728 1.51-6.797 2.578-11.466 2.897a13.418 13.418 0 00-1.059-.469C28.181 12.881 23.269 12 18 12c-.778 0-1.538.019-2.297.056L15.6 12C13.34 10.744 12 9.187 12 7.5 12 3.356 20.063 0 30 0c9.938 0 18 3.356 18 7.5zm-32.934 7.603C16.022 15.037 17.006 15 18 15c5.831 0 11.006 1.153 14.297 2.944C34.622 19.209 36 20.784 36 22.5c0 .375-.066.74-.197 1.097-.431 1.237-1.594 2.372-3.281 3.328-.01.01-.028.01-.038.019-.028.018-.056.028-.084.047-3.281 1.818-8.512 3-14.4 3-5.588 0-10.584-1.06-13.894-2.729a8.928 8.928 0 01-.515-.271C1.34 25.744 0 24.188 0 22.5c0-3.262 5.006-6.047 12-7.069.984-.14 2.006-.253 3.066-.328zM39 22.5c0-2.053-.994-3.74-2.26-5.006 2.654-.413 5.082-1.069 7.144-1.922 1.529-.638 2.953-1.425 4.116-2.39V16.5c0 1.81-1.547 3.478-4.106 4.772-1.369.694-3.038 1.284-4.913 1.734.01-.169.019-.328.019-.497V22.5zm-3 9c0 1.688-1.34 3.244-3.6 4.5-.169.094-.337.178-.516.272C28.584 37.94 23.587 39 18 39c-5.887 0-11.119-1.181-14.4-3C1.34 34.744 0 33.187 0 31.5v-3.319c1.172.966 2.587 1.753 4.116 2.39C7.819 32.12 12.73 33 18 33s10.181-.881 13.884-2.428c.732-.3 1.435-.647 2.1-1.022a14.889 14.889 0 001.613-1.05c.14-.103.272-.216.403-.319V31.5zm3 0v-5.428c1.781-.394 3.422-.89 4.884-1.5 1.529-.638 2.953-1.425 4.116-2.39V25.5c0 .984-.469 1.969-1.397 2.897-1.528 1.528-4.219 2.784-7.622 3.6.01-.16.019-.328.019-.497zM18 42c5.269 0 10.181-.881 13.884-2.428 1.529-.638 2.953-1.425 4.116-2.39V40.5c0 4.144-8.063 7.5-18 7.5-9.938 0-18-3.356-18-7.5v-3.319c1.172.966 2.587 1.753 4.116 2.39C7.819 41.12 12.73 42 18 42z"/></g><defs><clipPath id="fa"><path d="M0 0h48v48H0z"/></clipPath></defs></svg><svg viewBox="0 0 48 48" id="money-bag" xmlns="http://www.w3.org/2000/svg"><path fill-rule="evenodd" clip-rule="evenodd" d="M24.104 2.5h-.208c-1.798 0-3.296 0-4.484.16-1.256.168-2.39.54-3.3 1.45-.912.912-1.284 2.046-1.452 3.3-.114.854-.148 2.892-.156 4.64-4.044.134-6.474.606-8.16 2.294C4 16.686 4 20.458 4 28c0 7.542 0 11.314 2.344 13.656C8.688 43.998 12.458 44 20 44h8c7.542 0 11.314 0 13.656-2.344C43.998 39.312 44 35.542 44 28c0-7.542 0-11.314-2.344-13.656-1.686-1.688-4.116-2.16-8.16-2.292-.008-1.75-.04-3.788-.156-4.64-.168-1.256-.54-2.39-1.452-3.3-.91-.912-2.044-1.284-3.3-1.452C27.4 2.5 25.9 2.5 24.104 2.5zm6.392 9.504c-.01-1.694-.038-3.516-.128-4.194-.126-.922-.34-1.318-.6-1.578-.26-.26-.656-.474-1.58-.6-.964-.128-2.26-.132-4.188-.132s-3.224.004-4.19.134c-.922.124-1.318.338-1.578.6-.26.262-.474.654-.6 1.576-.09.68-.12 2.5-.128 4.194C18.288 12 19.12 11.999 20 12h8c.883 0 1.715.001 2.496.004zM24 18.5a1.5 1.5 0 011.5 1.5v.02c2.178.548 4 2.266 4 4.646a1.5 1.5 0 11-3 0c0-.768-.852-1.832-2.5-1.832-1.648 0-2.5 1.064-2.5 1.832S22.352 26.5 24 26.5c2.77 0 5.5 1.92 5.5 4.834 0 2.38-1.822 4.096-4 4.646V36a1.5 1.5 0 11-3 0v-.02c-2.178-.548-4-2.266-4-4.646a1.5 1.5 0 113 0c0 .768.852 1.832 2.5 1.832 1.648 0 2.5-1.064 2.5-1.832S25.648 29.5 24 29.5c-2.77 0-5.5-1.92-5.5-4.834 0-2.38 1.822-4.098 4-4.646V20a1.5 1.5 0 011.5-1.5z"/></svg><svg viewBox="0 0 48 48" id="receive-filled" xmlns="http://www.w3.org/2000/svg"><path fill-rule="evenodd" clip-rule="evenodd" d="M6.5 31.492a1.875 1.875 0 011.875 1.875V39c0 .345.28.625.625.625h30a.624.624 0 00.625-.625v-5.633a1.875 1.875 0 113.75 0V39A4.375 4.375 0 0139 43.375H9A4.375 4.375 0 014.625 39v-5.633A1.875 1.875 0 016.5 31.494zM24.505 4.625A1.875 1.875 0 0126.38 6.5v20.215a1.875 1.875 0 11-3.75 0V6.5a1.875 1.875 0 011.875-1.875z"/><path fill-rule="evenodd" clip-rule="evenodd" d="M14.805 20.565a1.875 1.875 0 012.65-.033l7.05 6.888 7.05-6.888a1.876 1.876 0 112.62 2.683l-8.36 8.167a1.875 1.875 0 01-2.62 0l-8.36-8.167a1.875 1.875 0 01-.03-2.65z"/></svg><svg viewBox="0 0 48 48" id="wallet" xmlns="http://www.w3.org/2000/svg"><path d="M8.953 9.75h30c.35 0 .7.022 1.048.067a6.19 6.19 0 00-7.266-5.21L8.063 8.82h-.029a6.187 6.187 0 00-3.85 2.45 8.21 8.21 0 014.77-1.52zm30 2.25h-30a6.006 6.006 0 00-6 6v18a6.006 6.006 0 006 6h30a6.006 6.006 0 006-6V18a6.006 6.006 0 00-6-6zM34.5 30a3 3 0 110-6 3 3 0 010 6z"/><path d="M3 24.328V15c0-2.032 1.125-5.438 5.03-6.175 3.314-.622 6.595-.622 6.595-.622s2.156 1.5.375 1.5c-1.781 0-1.734 2.297 0 2.297s0 2.203 0 2.203l-6.984 7.922L3 24.328z"/></svg></svg>